HIERARCHY
ROOT hip
{
  OFFSET 0 0 0
  CHANNELS 6 Xposition Yposition Zposition Zrotation Yrotation Xrotation
  JOINT abdomen
  {
    OFFSET 0 20.6881 -0.73152
    CHANNELS 3 Zrotation Xrotation Yrotation
    JOINT chest
    {
      OFFSET 0 11.7043 -0.48768
      CHANNELS 3 Zrotation Xrotation Yrotation
      JOINT neck
      {
        OFFSET 0 22.1894 -2.19456
        CHANNELS 3 Zrotation Xrotation Yrotation
        JOINT head
        {
          OFFSET -0.24384 7.07133 1.2192
          CHANNELS 3 Zrotation Xrotation Yrotation
          JOINT leftEye
          {
            OFFSET 4.14528 8.04674 8.04672
            CHANNELS 3 Zrotation Xrotation Yrotation
            End Site
            {
              OFFSET 1 0 0
            }
          }
          JOINT rightEye
          {
            OFFSET -3.6576 8.04674 8.04672
            CHANNELS 3 Zrotation Xrotation Yrotation
            End Site
            {
              OFFSET 1 0 0
            }
          }
        }
      }
      JOINT rCollar
      {
        OFFSET -2.68224 19.2634 -4.8768
        CHANNELS 3 Zrotation Xrotation Yrotation
        JOINT rShldr
        {
          OFFSET -8.77824 -1.95073 1.46304
          CHANNELS 3 Zrotation Xrotation Yrotation
          JOINT rForeArm
          {
            OFFSET -28.1742 -1.7115 0.48768
            CHANNELS 3 Zrotation Xrotation Yrotation
            JOINT rHand
            {
              OFFSET -22.5879 0.773209 7.07136
              CHANNELS 3 Zrotation Xrotation Yrotation
              JOINT rThumb1
              {
                OFFSET -1.2192 -0.487915 3.41376
                CHANNELS 3 Zrotation Xrotation Yrotation
                JOINT rThumb2
                {
                  OFFSET -3.37035 -0.52449 3.41376
                  CHANNELS 3 Zrotation Xrotation Yrotation
                  End Site
                  {
                    OFFSET -1.78271 -1.18214 1.43049
                  }
                }
              }
              JOINT rIndex1
              {
                OFFSET -7.75947 0.938293 5.60832
                CHANNELS 3 Zrotation Xrotation Yrotation
                JOINT rIndex2
                {
                  OFFSET -2.54057 -0.884171 1.56538
                  CHANNELS 3 Zrotation Xrotation Yrotation
                  End Site
                  {
                    OFFSET -1.62519 -0.234802 1.16502
                  }
                }
              }
              JOINT rMid1
              {
                OFFSET -8.24714 1.18213 3.41376
                CHANNELS 3 Zrotation Xrotation Yrotation
                JOINT rMid2
                {
                  OFFSET -3.10165 -0.590103 1.0647
                  CHANNELS 3 Zrotation Xrotation Yrotation
                  End Site
                  {
                    OFFSET -2.48547 -0.328903 0.83742
                  }
                }
              }
              JOINT rRing1
              {
                OFFSET -8.82822 0.546677 1.51678
                CHANNELS 3 Zrotation Xrotation Yrotation
                JOINT rRing2
                {
                  OFFSET -2.60934 -0.819778 -0.0198488
                  CHANNELS 3 Zrotation Xrotation Yrotation
                  End Site
                  {
                    OFFSET -2.33842 -0.294052 0.168128
                  }
                }
              }
              JOINT rPinky1
              {
                OFFSET -8.27202 -0.0477905 -0.4584
                CHANNELS 3 Zrotation Xrotation Yrotation
                JOINT rPinky2
                {
                  OFFSET -1.82734 -0.647385 -0.700984
                  CHANNELS 3 Zrotation Xrotation Yrotation
                  End Site
                  {
                    OFFSET -1.69225 -0.51767 -0.607171
                  }
                }
              }
            }
          }
        }
      }
      JOINT lCollar
      {
        OFFSET 2.68224 19.2634 -4.8768
        CHANNELS 3 Zrotation Xrotation Yrotation
        JOINT lShldr
        {
          OFFSET 8.77824 -1.95073 1.46304
          CHANNELS 3 Zrotation Xrotation Yrotation
          JOINT lForeArm
          {
            OFFSET 28.1742 -1.7115 0.48768
            CHANNELS 3 Zrotation Xrotation Yrotation
            JOINT lHand
            {
              OFFSET 22.5879 0.773209 7.07136
              CHANNELS 3 Zrotation Xrotation Yrotation
              JOINT lThumb1
              {
                OFFSET 1.2192 -0.487915 3.41376
                CHANNELS 3 Zrotation Xrotation Yrotation
                JOINT lThumb2
                {
                  OFFSET 3.37035 -0.52449 3.41376
                  CHANNELS 3 Zrotation Xrotation Yrotation
                  End Site
                  {
                    OFFSET 1.78271 -1.18214 1.43049
                  }
                }
              }
              JOINT lIndex1
              {
                OFFSET 7.75947 0.938293 5.60832
                CHANNELS 3 Zrotation Xrotation Yrotation
                JOINT lIndex2
                {
                  OFFSET 2.54057 -0.884171 1.56538
                  CHANNELS 3 Zrotation Xrotation Yrotation
                  End Site
                  {
                    OFFSET 1.62519 -0.234802 1.16502
                  }
                }
              }
              JOINT lMid1
              {
                OFFSET 8.24714 1.18213 3.41376
                CHANNELS 3 Zrotation Xrotation Yrotation
                JOINT lMid2
                {
                  OFFSET 3.10165 -0.590103 1.0647
                  CHANNELS 3 Zrotation Xrotation Yrotation
                  End Site
                  {
                    OFFSET 2.48547 -0.328903 0.83742
                  }
                }
              }
              JOINT lRing1
              {
                OFFSET 8.82822 0.546677 1.51678
                CHANNELS 3 Zrotation Xrotation Yrotation
                JOINT lRing2
                {
                  OFFSET 2.60934 -0.819778 -0.0198488
                  CHANNELS 3 Zrotation Xrotation Yrotation
                  End Site
                  {
                    OFFSET 2.33842 -0.294052 0.168128
                  }
                }
              }
              JOINT lPinky1
              {
                OFFSET 8.27202 -0.0477905 -0.4584
                CHANNELS 3 Zrotation Xrotation Yrotation
                JOINT lPinky2
                {
                  OFFSET 1.82734 -0.647385 -0.700984
                  CHANNELS 3 Zrotation Xrotation Yrotation
                  End Site
                  {
                    OFFSET 1.69225 -0.51767 -0.607171
                  }
                }
              }
            }
          }
        }
      }
    }
  }
  JOINT rButtock
  {
    OFFSET -8.77824 4.35084 1.2192
    CHANNELS 3 Zrotation Xrotation Yrotation
    JOINT rThigh
    {
      OFFSET 0 -1.70687 -2.19456
      CHANNELS 3 Zrotation Xrotation Yrotation
      JOINT rShin
      {
        OFFSET 0 -36.8199 0.73152
        CHANNELS 3 Zrotation Xrotation Yrotation
        JOINT rFoot
        {
          OFFSET 0.73152 -45.1104 -5.12064
          CHANNELS 3 Zrotation Xrotation Yrotation
          End Site
          {
            OFFSET -1.1221 -3.69964 12.103
          }
        }
      }
    }
  }
  JOINT lButtock
  {
    OFFSET 8.77824 4.35084 1.2192
    CHANNELS 3 Zrotation Xrotation Yrotation
    JOINT lThigh
    {
      OFFSET 0 -1.70687 -2.19456
      CHANNELS 3 Zrotation Xrotation Yrotation
      JOINT lShin
      {
        OFFSET 0 -36.8199 0.73152
        CHANNELS 3 Zrotation Xrotation Yrotation
        JOINT lFoot
        {
          OFFSET -0.73152 -45.1104 -5.12064
          CHANNELS 3 Zrotation Xrotation Yrotation
          End Site
          {
            OFFSET 1.1221 -3.69964 12.103
          }
        }
      }
    }
  }
}
MOTION
Frames:	7
Frame Time:	0.00833333
-8.60017 82.7598 11.4537 -359.264 21.7263 359.572 -6.51232 8.46589 3.306 0.488676 -1.81834 0.809009 -4.56261 7.7879 3.26295 9.05107 8.1125 6.83124 -0.0 0.0 0.0 -0.0 0.0 0.0 1.21754e-14 4.79326e-14 -4.66614e-13 76.8077 20.5277 -6.62285 -15.8742 -8.57079 29.4073 -0.683321 22.803 3.38739 1.84625e-09 1.06295e-10 -3.49001e-11 3.18523e-09 2.33314e-10 -9.59524e-11 1.84625e-09 1.06304e-10 -3.49037e-11 7.73091 5.47488 0.417314 1.84625e-09 1.06297e-10 -3.48931e-11 2.90554 0.965183 0.102902 1.84625e-09 1.06299e-10 -3.48946e-11 10.2786 0.731801 0.0259123 1.84624e-09 1.06299e-10 -3.48786e-11 2.22167 -0.733487 -0.20892 1.20527e-14 4.793e-14 -4.66781e-13 -70.8615 21.0481 -2.9334 13.0774 -6.23345 -23.7156 0.144252 10.7675 -1.5315 2.5151e-09 3.33524e-09 -7.3537e-10 4.3403e-09 5.76931e-09 -1.2977e-09 2.51509e-09 3.33524e-09 -7.35358e-10 -7.73091 5.47488 -0.417314 2.5151e-09 3.33524e-09 -7.35364e-10 -2.90554 0.965183 -0.102902 2.5151e-09 3.33525e-09 -7.35369e-10 -10.2786 0.731801 -0.0259123 2.51511e-09 3.33525e-09 -7.35374e-10 -2.22167 -0.733487 0.20892 -2.03217e-16 0.0 -3.88251e-19 1.96793 -22.7985 16.0583 -0.398126 44.1938 0.976662 -6.86837 -12.584 -20.7501 2.03217e-16 0.0 3.88251e-19 -5.57348 -11.7499 -7.05994 0.123372 26.396 -0.412127 0.209261 -10.4517 -0.934956
-7.85199 82.9294 11.8584 -357.403 22.7651 359.86 -6.51479 8.43888 3.22247 0.502462 -1.873 0.789822 -4.57371 8.04564 3.25853 9.0758 7.82406 6.82987 -0.0 0.0 0.0 -0.0 0.0 0.0 2.78591e-14 2.03283e-14 -4.80195e-13 76.837 20.5717 -6.69312 -15.8383 -8.5378 29.3318 -0.6724 22.6331 3.35926 1.91824e-09 4.16712e-10 -2.23724e-10 3.30665e-09 7.72324e-10 -4.23314e-10 1.91823e-09 4.16718e-10 -2.23728e-10 7.73091 5.47488 0.417314 1.91824e-09 4.16709e-10 -2.23717e-10 2.90554 0.965183 0.102902 1.91824e-09 4.16714e-10 -2.2372e-10 10.2786 0.731801 0.0259123 1.91823e-09 4.16714e-10 -2.23706e-10 2.22167 -0.733487 -0.20892 2.77994e-14 2.03224e-14 -4.80332e-13 -70.8062 21.1802 -2.92004 13.1751 -6.30767 -23.9086 0.138853 10.5689 -1.50259 2.38939e-09 3.66959e-09 -1.03539e-09 4.12014e-09 6.34812e-09 -1.81527e-09 2.38939e-09 3.66959e-09 -1.03538e-09 -7.73091 5.47488 -0.417314 2.3894e-09 3.66959e-09 -1.03539e-09 -2.90554 0.965183 -0.102902 2.38939e-09 3.66959e-09 -1.03539e-09 -10.2786 0.731801 -0.0259123 2.3894e-09 3.66959e-09 -1.0354e-09 -2.22167 -0.733487 0.20892 -2.03217e-16 0.0 -3.88251e-19 2.20283 -23.0249 16.7151 -0.373934 43.1335 0.940106 -6.7331 -12.563 -20.4229 2.03217e-16 0.0 3.88251e-19 -5.58191 -11.5392 -7.24789 0.12116 26.0713 -0.407334 0.10266 -10.353 -1.39148
-8.25369 82.9151 11.8124 -358.768 23.0437 359.901 -6.53992 8.42564 3.1512 0.526091 -1.93116 0.773437 -4.58273 8.29546 3.25388 9.0865 7.54029 6.82905 -0.0 0.0 0.0 -0.0 0.0 0.0 4.58732e-14 -9.28905e-15 -4.65943e-13 76.8605 20.6097 -6.7662 -15.8055 -8.50777 29.263 -0.659032 22.4218 3.32439 1.87113e-09 7.945e-10 -4.75987e-10 3.22141e-09 1.42529e-09 -8.58098e-10 1.87113e-09 7.94502e-10 -4.75993e-10 7.73091 5.47488 0.417314 1.87114e-09 7.94493e-10 -4.75981e-10 2.90554 0.965183 0.102902 1.87114e-09 7.945e-10 -4.75985e-10 10.2786 0.731801 0.0259123 1.87113e-09 7.94499e-10 -4.75973e-10 2.22167 -0.733487 -0.20892 4.58764e-14 -9.29745e-15 -4.66056e-13 -70.7667 21.2991 -2.90893 13.2673 -6.37817 -24.091 0.133273 10.3557 -1.4716 2.08187e-09 3.80939e-09 -1.29405e-09 3.58617e-09 6.59022e-09 -2.25948e-09 2.08186e-09 3.80939e-09 -1.29404e-09 -7.73091 5.47488 -0.417314 2.08187e-09 3.80939e-09 -1.29405e-09 -2.90554 0.965183 -0.102902 2.08186e-09 3.80939e-09 -1.29405e-09 -10.2786 0.731801 -0.0259123 2.08187e-09 3.8094e-09 -1.29406e-09 -2.22167 -0.733487 0.20892 -2.03217e-16 0.0 -3.88251e-19 2.40687 -23.262 17.3833 -0.351605 42.0726 0.901717 -6.50305 -12.4683 -19.8843 2.03217e-16 0.0 3.88251e-19 -5.60746 -11.3187 -7.44864 0.11886 25.7291 -0.401659 0.00104092 -10.2513 -1.83185
-8.21123 82.9259 12.0028 -358.98 23.6035 359.926 -6.55767 8.423 3.11337 0.555177 -1.97388 0.766615 -4.61972 8.44451 3.23541 9.11581 7.35324 6.80599 -0.0 0.0 0.0 -0.0 0.0 0.0 5.72081e-14 -3.33912e-14 -4.03881e-13 76.8581 20.6143 -6.80903 -15.7765 -8.48121 29.2021 -0.648856 22.2583 3.2975 1.56435e-09 1.09825e-09 -6.88609e-10 2.68824e-09 1.94349e-09 -1.2196e-09 1.56435e-09 1.09825e-09 -6.88616e-10 7.73091 5.47488 0.417314 1.56435e-09 1.09824e-09 -6.88603e-10 2.90554 0.965183 0.102902 1.56435e-09 1.09825e-09 -6.88608e-10 10.2786 0.731801 0.0259123 1.56434e-09 1.09825e-09 -6.88596e-10 2.22167 -0.733487 -0.20892 5.7246e-14 -3.34003e-14 -4.0398e-13 -70.7353 21.3842 -2.93155 13.3526 -6.44373 -24.2605 0.128973 10.1862 -1.44701 1.56947e-09 3.45947e-09 -1.37743e-09 2.69985e-09 5.98468e-09 -2.39853e-09 1.56947e-09 3.45947e-09 -1.37742e-09 -7.73091 5.47488 -0.417314 1.56948e-09 3.45947e-09 -1.37743e-09 -2.90554 0.965183 -0.102902 1.56947e-09 3.45947e-09 -1.37743e-09 -10.2786 0.731801 -0.0259123 1.56948e-09 3.45947e-09 -1.37744e-09 -2.22167 -0.733487 0.20892 -2.03217e-16 0.0 -3.88251e-19 2.59333 -23.4981 18.0525 -0.32998 40.9993 0.861679 -6.19991 -12.3575 -19.1256 2.03217e-16 0.0 3.88251e-19 -5.6252 -11.1409 -7.6397 0.117413 25.4426 -0.396142 -0.100229 -10.1561 -2.27255
-8.11044 82.9256 12.1684 -358.936 24.1952 360.031 -6.57574 8.43343 3.12382 0.596898 -1.99873 0.773655 -4.70557 8.44248 3.1939 9.18555 7.31643 6.7451 -0.0 0.0 0.0 -0.0 0.0 0.0 6.15775e-14 -4.94662e-14 -2.6526e-13 76.8227 20.5687 -6.8107 -15.7509 -8.45779 29.1484 -0.643151 22.1659 3.28233 7.87384e-10 1.42745e-09 -9.45295e-10 1.34199e-09 2.49414e-09 -1.64859e-09 7.87386e-10 1.42746e-09 -9.45301e-10 7.73091 5.47488 0.417314 7.87386e-10 1.42745e-09 -9.45288e-10 2.90554 0.965183 0.102902 7.87387e-10 1.42745e-09 -9.45292e-10 10.2786 0.731801 0.0259123 7.87377e-10 1.42745e-09 -9.45281e-10 2.22167 -0.733487 -0.20892 6.16071e-14 -4.94725e-14 -2.6536e-13 -70.7092 21.4308 -3.0031 13.4302 -6.50364 -24.4148 0.126437 10.0849 -1.43232 6.49696e-10 2.32081e-09 -1.18757e-09 1.11222e-09 4.01387e-09 -2.06106e-09 6.49693e-10 2.32081e-09 -1.18756e-09 -7.73091 5.47488 -0.417314 6.49696e-10 2.32081e-09 -1.18757e-09 -2.90554 0.965183 -0.102902 6.4969e-10 2.32081e-09 -1.18757e-09 -10.2786 0.731801 -0.0259123 6.49701e-10 2.32081e-09 -1.18758e-09 -2.22167 -0.733487 0.20892 -2.03217e-16 0.0 -3.88251e-19 2.74652 -23.7446 18.6993 -0.309203 39.9086 0.818834 -5.79104 -12.2192 -18.0473 2.03217e-16 0.0 3.88251e-19 -5.63741 -11.0364 -7.81234 0.117316 25.2528 -0.391321 -0.203775 -10.0803 -2.72016
-8.01012 82.9395 12.3169 -358.854 24.768 360.214 -6.60492 8.45751 3.16819 0.650834 -2.01492 0.790118 -4.82018 8.3474 3.13847 9.27414 7.37112 6.66158 -0.0 0.0 0.0 -0.0 0.0 0.0 6.3081e-14 -6.16974e-14 -6.85435e-14 76.7656 20.4906 -6.78955 -15.7286 -8.43742 29.1016 -0.638909 22.0972 3.27107 -3.27103e-10 1.81179e-09 -1.26396e-09 -5.88388e-10 3.13204e-09 -2.17847e-09 -3.27103e-10 1.8118e-09 -1.26396e-09 7.73091 5.47488 0.417314 -3.27102e-10 1.81179e-09 -1.26395e-09 2.90554 0.965183 0.102902 -3.27101e-10 1.81179e-09 -1.26395e-09 10.2786 0.731801 0.0259123 -3.27109e-10 1.8118e-09 -1.26394e-09 2.22167 -0.733487 -0.20892 6.30769e-14 -6.16984e-14 -6.86553e-14 -70.6925 21.4496 -3.10452 13.5011 -6.55875 -24.5557 0.124748 10.0177 -1.42257 -5.99722e-10 6.24279e-10 -8.16654e-10 -1.04329e-09 1.07741e-09 -1.4072e-09 -5.99726e-10 6.24278e-10 -8.16639e-10 -7.73091 5.47488 -0.417314 -5.99722e-10 6.24277e-10 -8.16651e-10 -2.90554 0.965183 -0.102902 -5.99727e-10 6.24279e-10 -8.1665e-10 -10.2786 0.731801 -0.0259123 -5.99719e-10 6.24281e-10 -8.16661e-10 -2.22167 -0.733487 0.20892 -2.03217e-16 0.0 -3.88251e-19 2.86633 -24.0028 19.3367 -0.290103 38.8072 0.773662 -5.28615 -12.024 -16.6878 2.03217e-16 0.0 3.88251e-19 -5.65507 -10.9715 -7.97958 0.117963 25.1135 -0.386538 -0.307085 -10.0152 -3.16521
-7.91019 82.9838 12.4971 -358.797 25.3185 360.37 -6.61976 8.4893 3.22385 0.701223 -2.02104 0.809664 -4.93188 8.2289 3.08295 9.34881 7.44095 6.57881 -0.0 0.0 0.0 -0.0 0.0 0.0 5.92884e-14 -7.25989e-14 1.35435e-13 76.6942 20.405 -6.75633 -15.7105 -8.42098 29.0637 -0.635078 22.0352 3.26091 -1.405e-09 2.00516e-09 -1.44282e-09 -2.45303e-09 3.43988e-09 -2.46744e-09 -1.405e-09 2.00516e-09 -1.44283e-09 7.73091 5.47488 0.417314 -1.405e-09 2.00516e-09 -1.44282e-09 2.90554 0.965183 0.102902 -1.405e-09 2.00516e-09 -1.44281e-09 10.2786 0.731801 0.0259123 -1.405e-09 2.00516e-09 -1.4428e-09 2.22167 -0.733487 -0.20892 5.92447e-14 -7.25953e-14 1.35306e-13 -70.6888 21.4429 -3.21597 13.5669 -6.61027 -24.6868 0.123154 9.95524 -1.41352 -1.78141e-09 -1.1305e-09 -4.15931e-10 -3.08155e-09 -1.95976e-09 -7.02427e-10 -1.78142e-09 -1.1305e-09 -4.15913e-10 -7.73091 5.47488 -0.417314 -1.78141e-09 -1.13051e-09 -4.15926e-10 -2.90554 0.965183 -0.102902 -1.78142e-09 -1.1305e-09 -4.15927e-10 -10.2786 0.731801 -0.0259123 -1.78141e-09 -1.1305e-09 -4.15936e-10 -2.22167 -0.733487 0.20892 -2.03217e-16 0.0 -3.88251e-19 2.9886 -24.2454 20.0074 -0.272367 37.702 0.728681 -4.7652 -11.8063 -15.2453 2.03217e-16 0.0 3.88251e-19 -5.6666 -10.9028 -8.15141 0.118622 24.967 -0.38103 -0.406719 -9.93868 -3.60016
